<svg  viewBox="0 0 32 32" fill="none" xmlns="http://www.w3.org/2000/svg">
<path d="M20.4444 16C20.4444 18.4546 18.4546 20.4444 16 20.4444C13.5454 20.4444 11.5556 18.4546 11.5556 16C11.5556 13.5454 13.5454 11.5556 16 11.5556C18.4546 11.5556 20.4444 13.5454 20.4444 16Z" />
<path fill-rule="evenodd" clip-rule="evenodd" d="M16 19.5556C17.9637 19.5556 19.5556 17.9637 19.5556 16C19.5556 14.0363 17.9637 12.4444 16 12.4444C14.0363 12.4444 12.4444 14.0363 12.4444 16C12.4444 17.9637 14.0363 19.5556 16 19.5556ZM16 20.4444C18.4546 20.4444 20.4444 18.4546 20.4444 16C20.4444 13.5454 18.4546 11.5556 16 11.5556C13.5454 11.5556 11.5556 13.5454 11.5556 16C11.5556 18.4546 13.5454 20.4444 16 20.4444Z" />
<path fill-rule="evenodd" clip-rule="evenodd" d="M15.1111 10.6667L15.5556 0H16.4444L16.8889 10.6667H15.1111Z" />
<path fill-rule="evenodd" clip-rule="evenodd" d="M15.5556 32L15.1111 21.3333H16.8889L16.4444 32H15.5556Z" />
<path fill-rule="evenodd" clip-rule="evenodd" d="M10.6667 16.8889L0 16.4444V15.5556L10.6667 15.1111V16.8889Z" />
<path fill-rule="evenodd" clip-rule="evenodd" d="M11.457 12.0855L7.68573 8.31427L8.31427 7.68573L12.0855 11.457L11.457 12.0855Z" />
<path fill-rule="evenodd" clip-rule="evenodd" d="M7.68573 23.9014L11.457 20.1302L12.0855 20.7587L8.31427 24.5299L7.68573 23.9014Z" />
<path fill-rule="evenodd" clip-rule="evenodd" d="M20.1302 11.457L23.9014 7.68573L24.53 8.31427L20.7587 12.0855L20.1302 11.457Z" />
<path fill-rule="evenodd" clip-rule="evenodd" d="M23.9014 24.53L20.1302 20.7587L20.7587 20.1302L24.5299 23.9014L23.9014 24.53Z" />
<path fill-rule="evenodd" clip-rule="evenodd" d="M32 16.4444L21.3333 16.8889V15.1111L32 15.5556V16.4444Z" />
</svg>
