<svg  viewBox="0 0 40 33" fill="none" xmlns="http://www.w3.org/2000/svg">
<path d="M40 3.90648C38.5283 4.56907 36.9466 5.01688 35.2866 5.21829C36.981 4.1872 38.2822 2.55456 38.8949 0.609268C37.3093 1.56387 35.553 2.2572 33.6837 2.6309C32.1867 1.01178 30.0539 0 27.6936 0C23.1613 0 19.4869 3.73002 19.4869 8.33073C19.4869 8.98366 19.5596 9.61952 19.6995 10.2292C12.879 9.88182 6.83214 6.56515 2.78459 1.52495C2.0782 2.75537 1.67351 4.18645 1.67351 5.71319C1.67351 8.60343 3.12243 11.1534 5.32441 12.6473C3.97908 12.6041 2.71378 12.2293 1.60723 11.6054C1.60664 11.6401 1.60664 11.675 1.60664 11.7101C1.60664 15.7465 4.43542 19.1137 8.18962 19.8789C7.50093 20.0693 6.77596 20.1711 6.02743 20.1711C5.49866 20.1711 4.98453 20.1189 4.48356 20.0216C5.52778 23.3315 8.55847 25.74 12.1495 25.8073C9.34094 28.0416 5.80241 29.3735 1.95764 29.3735C1.29529 29.3735 0.642013 29.3341 0 29.2572C3.63173 31.6209 7.94543 33 12.5798 33C27.6745 33 35.9287 20.3056 35.9287 9.29676C35.9287 8.93554 35.9208 8.57624 35.905 8.21903C37.5083 7.04446 38.8997 5.57714 40 3.90648Z"/>
</svg>


