<svg viewBox="0 0 32 32" xmlns="http://www.w3.org/2000/svg">
<path fill-rule="evenodd" clip-rule="evenodd" d="M1.77946 21.5613C3.32006 24.9605 6.13363 27.7913 9.88341 29.2784C17.544 32.3164 26.2011 28.5906 29.2243 20.9674C32.2308 13.3863 28.5383 4.79322 20.9631 1.71053C21.862 4.95611 21.7495 8.51235 20.4122 11.8845C17.4339 19.3944 9.41276 23.4021 1.77946 21.5613ZM1.27733 20.3055C0.852169 20.1792 0.428954 20.0329 0.0087797 19.8663L0 19.8628C0.00143152 19.8677 0.00286606 19.8727 0.00430276 19.8776C0.132578 20.3173 0.279605 20.751 0.44484 21.1777C1.99839 25.1892 5.16158 28.5703 9.48434 30.2846C17.6972 33.5417 26.9856 29.5489 30.2306 21.3665C33.4756 13.184 29.4484 3.91047 21.2356 0.653404C21.0035 0.561363 20.7705 0.475116 20.5369 0.394585C20.0969 0.242922 19.6544 0.111547 19.2105 0C19.3903 0.411837 19.5515 0.831716 19.6938 1.25829C20.7678 4.47935 20.7555 8.08217 19.4059 11.4854C16.5305 18.7359 8.61392 22.4855 1.27733 20.3055Z"/>
</svg>
