<svg  viewBox="0 0 94 43"  xmlns="http://www.w3.org/2000/svg">
<path d="M58.451 39.7464V28.5272H64.9984C65.5574 28.5272 66.0627 28.6501 66.5143 28.8958C66.9766 29.1416 67.3421 29.4835 67.6109 29.9216C67.8904 30.3597 68.0302 30.8779 68.0302 31.4763C68.0302 31.8289 67.9603 32.1655 67.8205 32.486C67.6915 32.8066 67.5034 33.0897 67.2561 33.3355C67.0196 33.5812 66.7454 33.7789 66.4337 33.9285C66.7992 34.0781 67.1217 34.2918 67.4013 34.5696C67.6915 34.8474 67.9173 35.1679 68.0786 35.5312C68.2506 35.8945 68.3366 36.2845 68.3366 36.7012C68.3366 37.3103 68.1915 37.8445 67.9012 38.304C67.6216 38.7634 67.2454 39.1214 66.7723 39.3778C66.2993 39.6236 65.7725 39.7464 65.1919 39.7464H58.451ZM61.1603 37.5186H64.4823C64.7081 37.5186 64.907 37.4652 65.079 37.3584C65.2618 37.2515 65.4069 37.1073 65.5144 36.9256C65.622 36.744 65.6757 36.5463 65.6757 36.3326C65.6757 36.1082 65.622 35.9105 65.5144 35.7396C65.4069 35.5579 65.2618 35.4137 65.079 35.3068C64.907 35.2 64.7081 35.1466 64.4823 35.1466H61.1603V37.5186ZM61.1603 32.9989H64.2082C64.4232 32.9989 64.6113 32.9508 64.7726 32.8546C64.9446 32.7478 65.079 32.6142 65.1758 32.4539C65.2725 32.283 65.3209 32.096 65.3209 31.893C65.3209 31.6793 65.2725 31.4923 65.1758 31.332C65.079 31.1611 64.9446 31.0275 64.7726 30.9313C64.6113 30.8245 64.4232 30.7711 64.2082 30.7711H61.1603V32.9989Z" />
<path d="M69.8519 39.7464V28.0464H72.3515V39.7464H69.8519Z" />
<path d="M78.2946 39.9388C77.4453 39.9388 76.682 39.7518 76.0047 39.3778C75.3273 39.0038 74.7898 38.491 74.392 37.8392C74.005 37.1874 73.8114 36.4555 73.8114 35.6434C73.8114 34.8207 74.005 34.0887 74.392 33.4477C74.7898 32.7959 75.3273 32.283 76.0047 31.909C76.682 31.5244 77.4453 31.332 78.2946 31.332C79.144 31.332 79.9019 31.5244 80.5685 31.909C81.2458 32.283 81.778 32.7959 82.165 33.4477C82.5628 34.0887 82.7617 34.8207 82.7617 35.6434C82.7617 36.4555 82.5628 37.1874 82.165 37.8392C81.778 38.491 81.2458 39.0038 80.5685 39.3778C79.8912 39.7518 79.1332 39.9388 78.2946 39.9388ZM78.2946 37.7751C78.6924 37.7751 79.0365 37.6789 79.3267 37.4866C79.617 37.2942 79.8428 37.0378 80.0041 36.7173C80.1653 36.3967 80.246 36.0334 80.246 35.6274C80.246 35.232 80.1653 34.8741 80.0041 34.5535C79.8428 34.233 79.617 33.9766 79.3267 33.7842C79.0365 33.5919 78.6924 33.4957 78.2946 33.4957C77.8969 33.4957 77.5474 33.5919 77.2464 33.7842C76.9561 33.9766 76.7304 34.233 76.5691 34.5535C76.4078 34.8741 76.3272 35.232 76.3272 35.6274C76.3272 36.0334 76.4078 36.3967 76.5691 36.7173C76.7304 37.0378 76.9561 37.2942 77.2464 37.4866C77.5474 37.6789 77.8969 37.7751 78.2946 37.7751Z" />
<path d="M85.504 43V40.8684H89.6324C89.7937 40.8684 89.928 40.8149 90.0356 40.7081C90.1431 40.6119 90.1968 40.4891 90.1968 40.3395V38.5284H90.1484C89.9334 38.7741 89.7023 38.9825 89.455 39.1534C89.2185 39.3244 88.9497 39.4526 88.6487 39.5381C88.3584 39.6236 88.0305 39.6663 87.6649 39.6663C86.9339 39.6663 86.2781 39.4954 85.6975 39.1534C85.1277 38.8008 84.6761 38.3147 84.3429 37.6949C84.0203 37.0752 83.8591 36.37 83.8591 35.5793C83.8591 34.7993 84.0257 34.0887 84.359 33.4477C84.703 32.8066 85.2029 32.2937 85.8588 31.909C86.5146 31.5244 87.3155 31.332 88.2616 31.332C89.1647 31.332 89.9442 31.519 90.6 31.893C91.2666 32.2563 91.7826 32.7745 92.1481 33.4477C92.5137 34.1101 92.6964 34.8901 92.6964 35.7877V40.5959C92.6964 41.3332 92.476 41.9155 92.0352 42.3429C91.6052 42.781 91.0085 43 90.2452 43H85.504ZM88.2778 37.5827C88.6648 37.5827 88.9981 37.4973 89.2776 37.3263C89.5571 37.1447 89.7722 36.9042 89.9227 36.6051C90.0732 36.3059 90.1484 35.9747 90.1484 35.6114C90.1484 35.2267 90.0732 34.8741 89.9227 34.5535C89.7722 34.233 89.5571 33.9819 89.2776 33.8003C88.9981 33.6079 88.6648 33.5118 88.2778 33.5118C87.9015 33.5118 87.5682 33.6026 87.2779 33.7842C86.9984 33.9659 86.7834 34.2116 86.6328 34.5215C86.4823 34.8314 86.4071 35.1786 86.4071 35.5633C86.4071 35.9373 86.4823 36.2792 86.6328 36.589C86.7834 36.8882 86.9984 37.1286 87.2779 37.3103C87.5682 37.4919 87.9015 37.5827 88.2778 37.5827Z" />
<path fill-rule="evenodd" clip-rule="evenodd" d="M1.42012 26.4499V19.8428H12.6339C13.0114 19.8428 13.2887 19.7641 13.4943 19.6384L13.5018 19.6338L13.5095 19.6294C13.7591 19.4877 13.9511 19.2967 14.0932 19.0495C14.2369 18.7995 14.3068 18.5376 14.3068 18.2546C14.3068 17.9417 14.2339 17.6688 14.0932 17.4241C13.9511 17.1769 13.7591 16.9859 13.5095 16.8442L13.5018 16.8398L13.4943 16.8352C13.2887 16.7094 13.0114 16.6308 12.6339 16.6308H9.09001C7.5129 16.6308 6.06944 16.3193 4.76991 15.6862C3.46937 15.0526 2.41658 14.148 1.62167 12.9757L1.61402 12.9644C0.83191 11.7467 0.453613 10.2997 0.453613 8.64894C0.453613 7.02412 0.819001 5.58333 1.56991 4.34712C2.31128 3.10299 3.31365 2.1435 4.57155 1.47927C5.82629 0.792979 7.21695 0.453613 8.73204 0.453613H20.5185V7.06075H9.59116C9.30468 7.06075 9.05818 7.13052 8.83814 7.26509L8.82718 7.2718C8.62209 7.3907 8.46334 7.54843 8.34415 7.7515L7.87293 7.47492C8.03998 7.19031 8.26669 6.96499 8.55306 6.79897C8.8633 6.60923 9.20933 6.51436 9.59116 6.51436H19.9721V1.00001H8.73204C7.30018 1.00001 5.99958 1.32019 4.83023 1.96057C3.66088 2.57723 2.73017 3.46664 2.0381 4.6288C1.34604 5.76725 1.00001 7.1073 1.00001 8.64894C1.00001 10.2143 1.35797 11.5544 2.0739 12.6691C2.81369 13.7601 3.79213 14.6021 5.00921 15.195C6.22629 15.788 7.58656 16.0844 9.09001 16.0844H12.6339C13.0873 16.0844 13.4691 16.1793 13.7793 16.369C14.1134 16.5588 14.376 16.8197 14.5669 17.1517C14.7578 17.4838 14.8532 17.8514 14.8532 18.2546C14.8532 18.6341 14.7578 18.9898 14.5669 19.3219C14.376 19.6539 14.1134 19.9148 13.7793 20.1046C13.4691 20.2943 13.0873 20.3892 12.6339 20.3892H1.96651V25.9035H13.7078C15.1396 25.9035 16.4402 25.5952 17.6096 24.9785C18.8028 24.3382 19.7454 23.4132 20.4375 22.2036C21.1534 20.9703 21.5114 19.4998 21.5114 17.7921C21.5114 16.2979 21.1773 15.0053 20.5091 13.9143C19.8409 12.7995 18.8863 11.9338 17.6454 11.3172C16.4283 10.7005 14.9964 10.3922 13.3498 10.3922H9.59116C9.20933 10.3922 8.8633 10.3092 8.55306 10.1432C8.26669 9.95341 8.03998 9.71624 7.87293 9.43163C7.70588 9.1233 7.62235 8.79125 7.62235 8.43549C7.62235 8.07972 7.70588 7.75953 7.87293 7.47492L8.34415 7.7515C8.23015 7.94573 8.16875 8.16911 8.16875 8.43549C8.16875 8.69851 8.22876 8.93827 8.3489 9.16309C8.46754 9.36257 8.62669 9.53214 8.83328 9.67316C9.05219 9.78563 9.30136 9.8458 9.59116 9.8458H13.3498C15.0639 9.8458 16.583 10.1668 17.8904 10.8288C19.2167 11.4883 20.2513 12.4224 20.9764 13.6311C21.7046 14.8211 22.0578 16.2153 22.0578 17.7921C22.0578 19.5764 21.6834 21.145 20.9109 22.4764C20.1696 23.7714 19.1536 24.77 17.8679 25.46L17.8644 25.4619C16.6101 26.1233 15.2209 26.4499 13.7078 26.4499H1.42012ZM26.6083 25.4578C25.3607 24.7745 24.3604 23.8457 23.6173 22.6741L23.6099 22.6625C22.8869 21.4564 22.53 20.1008 22.53 18.6104C22.53 17.4582 22.7884 16.3661 23.3042 15.3408C23.7227 14.509 24.2776 13.7787 24.966 13.1517C24.3654 12.5652 23.8615 11.8979 23.4555 11.1513L23.4513 11.1436L23.4474 11.1358C22.9581 10.1633 22.709 9.15467 22.709 8.1153C22.709 6.64696 23.0669 5.32316 23.7945 4.16098C24.5147 3.0106 25.4931 2.10393 26.7192 1.44389C27.9479 0.782396 29.2904 0.453613 30.7368 0.453613H42.1653V7.06075H32.0971C31.7426 7.06075 31.4304 7.12824 31.1524 7.25597C30.9085 7.37841 30.7094 7.54939 30.5495 7.77482C30.4255 7.98055 30.3525 8.24097 30.3525 8.57779C30.3525 8.88083 30.4208 9.12829 30.5443 9.33647C30.7045 9.54304 30.9093 9.72145 31.1659 9.87018C31.4405 9.99393 31.7484 10.0593 32.0971 10.0593H40.9124V16.6308H32.1687C31.7937 16.6308 31.4776 16.7086 31.2075 16.8518L31.1946 16.8586L31.1815 16.8647C30.9216 16.9852 30.717 17.1613 30.5591 17.4008C30.4256 17.6382 30.3525 17.9179 30.3525 18.2546C30.3525 18.5875 30.4239 18.8646 30.5546 19.1002C30.712 19.3196 30.9216 19.5036 31.1945 19.6505C31.4676 19.7746 31.7889 19.8428 32.1687 19.8428H42.1653V26.4499H30.7368C29.2459 26.4499 27.8689 26.1226 26.6159 25.4618L26.6083 25.4578ZM30.9516 20.1401C30.5936 19.9504 30.3072 19.7014 30.0925 19.393C29.9016 19.061 29.8061 18.6815 29.8061 18.2546C29.8061 17.8277 29.9016 17.4482 30.0925 17.1161C30.3072 16.7841 30.5936 16.5351 30.9516 16.369C31.3095 16.1793 31.7152 16.0844 32.1687 16.0844H40.3661V10.6056H32.0971C31.6675 10.6056 31.2738 10.5226 30.9158 10.3566C30.5817 10.1669 30.3072 9.9297 30.0925 9.64508C29.9016 9.33675 29.8061 8.98099 29.8061 8.57779C29.8061 8.15087 29.9016 7.78325 30.0925 7.47492C30.3072 7.16659 30.5817 6.92942 30.9158 6.76339C31.2738 6.59737 31.6675 6.51436 32.0971 6.51436H41.6189V1.00001H30.7368C29.3765 1.00001 28.1237 1.30834 26.9782 1.92499C25.8327 2.54165 24.9258 3.38363 24.2576 4.45092C23.5894 5.51821 23.2553 6.73967 23.2553 8.1153C23.2553 9.064 23.4821 9.98899 23.9355 10.8903C24.3237 11.604 24.8066 12.2394 25.3843 12.7962C25.5168 12.924 25.6544 13.0476 25.7969 13.1672C25.6492 13.2813 25.5072 13.3997 25.3708 13.5222C24.7137 14.1127 24.1875 14.8007 23.7923 15.5864C23.315 16.5351 23.0764 17.5431 23.0764 18.6104C23.0764 20.0097 23.4105 21.2667 24.0787 22.3815C24.7707 23.4725 25.7014 24.3382 26.8708 24.9785C28.0401 25.5952 29.3288 25.9035 30.7368 25.9035H41.6189V20.3892H32.1687C31.7152 20.3892 31.3095 20.3062 30.9516 20.1401ZM43.109 19.5481V14.0082H54.3322V19.5481H43.109ZM56.151 23.5803C55.647 22.7103 55.3973 21.7494 55.3973 20.7094C55.3973 19.7871 55.6234 18.9055 56.0687 18.0712C56.5135 17.2143 57.1298 16.4982 57.9128 15.9275L57.9218 15.9209L65.2549 10.8017C65.6605 10.5038 65.9331 10.204 66.0997 9.9096L66.1059 9.89858L66.1127 9.88786C66.2962 9.59598 66.3868 9.28184 66.3868 8.93356C66.3868 8.54148 66.2987 8.26706 66.1627 8.07184L66.1573 8.06415L66.1522 8.05629C65.9991 7.81949 65.7869 7.63901 65.4982 7.5135L65.4789 7.50508L65.4602 7.49519C65.1976 7.356 64.8602 7.27421 64.4274 7.27421H56.4354V0.453613H65.036C66.7402 0.453613 68.2674 0.827847 69.6012 1.59208C70.9421 2.34676 72.0017 3.35908 72.7682 4.62738C73.5637 5.90383 73.9587 7.33211 73.9587 8.89798C73.9587 10.4468 73.6314 11.8429 72.9622 13.0715C72.3106 14.2877 71.2573 15.3347 69.8407 16.2246L69.8368 16.227L64.605 19.6293H74.3883V26.4499H61.4921C60.3135 26.4499 59.2514 26.1945 58.3228 25.6671C57.4109 25.1492 56.6852 24.4567 56.1573 23.5909L56.151 23.5803ZM69.5463 15.7642C70.9066 14.9104 71.885 13.9261 72.4816 12.8114C73.1021 11.6729 73.4123 10.3685 73.4123 8.89798C73.4123 7.42749 73.0424 6.0993 72.3027 4.91342C71.5867 3.72753 70.5964 2.77883 69.3316 2.0673C68.0906 1.35577 66.6588 1.00001 65.036 1.00001H56.9818V6.72781H64.4274C64.9286 6.72781 65.3581 6.82269 65.7161 7.01243C66.0979 7.17845 66.3962 7.42749 66.611 7.75953C66.8258 8.06786 66.9332 8.4592 66.9332 8.93356C66.9332 9.38419 66.8139 9.79925 66.5752 10.1787C66.3605 10.5582 66.0263 10.914 65.5729 11.246L58.2346 16.369C57.5187 16.8908 56.9579 17.5431 56.5522 18.3257C56.1465 19.0847 55.9437 19.8792 55.9437 20.7094C55.9437 21.6581 56.1704 22.5238 56.6238 23.3064C57.1011 24.0891 57.7574 24.7176 58.5926 25.192C59.4279 25.6663 60.3944 25.9035 61.4921 25.9035H73.8419V20.1757H63.9621C63.8189 20.1757 63.6996 20.152 63.6041 20.1046C63.5325 20.0571 63.4967 19.9741 63.4967 19.8555C63.4967 19.7844 63.5206 19.7251 63.5683 19.6776C63.616 19.6065 63.6757 19.5591 63.7473 19.5353L69.5463 15.7642ZM75.0773 26.4499L85.4446 7.39937C85.46 7.35158 85.4724 7.30999 85.4821 7.27421H74.7344V0.453613H87.4516C88.5636 0.453613 89.5866 0.711201 90.5084 1.23351C91.4199 1.72636 92.1554 2.40434 92.7064 3.26365C93.2692 4.11744 93.5464 5.08823 93.5464 6.15859C93.5464 6.70577 93.4682 7.25066 93.3138 7.79193C93.1877 8.31536 93.0231 8.80626 92.8187 9.26334L92.8108 9.28097L83.6265 26.4499H75.0773ZM92.7852 7.6528C92.9284 7.15473 93 6.65666 93 6.15859C93 5.18617 92.7494 4.32048 92.2483 3.56151C91.7471 2.77883 91.0789 2.16217 90.2437 1.71154C89.4084 1.23718 88.4777 1.00001 87.4516 1.00001H75.2808V6.72781H85.5185C85.7095 6.72781 85.8407 6.76339 85.9123 6.83455C86.0078 6.9057 86.0555 7.01243 86.0555 7.15473C86.0555 7.2496 86.0197 7.40377 85.9481 7.61723L75.9967 25.9035H83.2992L92.3199 9.04028C92.5108 8.61337 92.6659 8.15087 92.7852 7.6528ZM43.6554 19.0017H53.7858V14.5546H43.6554V19.0017Z" />
</svg>
