<svg  viewBox="0 0 94 26" xmlns="http://www.w3.org/2000/svg">
<path fill-rule="evenodd" clip-rule="evenodd" d="M0.966505 25.9963V19.3892H12.1802C12.5577 19.3892 12.8351 19.3105 13.0406 19.1848L13.0482 19.1802L13.0559 19.1758C13.3055 19.0341 13.4975 18.8431 13.6396 18.5959C13.7833 18.3459 13.8532 18.0839 13.8532 17.801C13.8532 17.4881 13.7803 17.2152 13.6396 16.9704C13.4975 16.7233 13.3055 16.5323 13.0559 16.3905L13.0482 16.3862L13.0406 16.3815C12.8351 16.2558 12.5577 16.1772 12.1802 16.1772H8.63639C7.05928 16.1772 5.61582 15.8657 4.31629 15.2326C3.01575 14.599 1.96297 13.6944 1.16806 12.5221L1.1604 12.5108C0.378297 11.2931 0 9.84608 0 8.19533C0 6.57051 0.365387 5.12972 1.1163 3.8935C1.85766 2.64938 2.86003 1.68988 4.11793 1.02566C5.37267 0.339366 6.76334 0 8.27843 0H20.0649V6.60714H9.13754C8.85106 6.60714 8.60456 6.67691 8.38453 6.81148L8.37357 6.81819C8.16848 6.93709 8.00972 7.09482 7.89054 7.29788L7.41931 7.02131C7.58637 6.73669 7.81308 6.51138 8.09945 6.34536C8.40968 6.15561 8.75572 6.06074 9.13754 6.06074H19.5185V0.546392H8.27843C6.84657 0.546392 5.54597 0.86658 4.37661 1.50696C3.20726 2.12362 2.27655 3.01303 1.58449 4.17519C0.892424 5.31364 0.546392 6.65368 0.546392 8.19533C0.546392 9.76069 0.904357 11.1007 1.62029 12.2155C2.36008 13.3065 3.33852 14.1485 4.5556 14.7414C5.77268 15.3343 7.13294 15.6308 8.63639 15.6308H12.1802C12.6337 15.6308 13.0155 15.7257 13.3257 15.9154C13.6598 16.1052 13.9223 16.3661 14.1133 16.6981C14.3042 17.0301 14.3996 17.3978 14.3996 17.801C14.3996 18.1805 14.3042 18.5362 14.1133 18.8683C13.9223 19.2003 13.6598 19.4612 13.3257 19.6509C13.0155 19.8407 12.6337 19.9356 12.1802 19.9356H1.5129V25.4499H13.2541C14.686 25.4499 15.9866 25.1416 17.156 24.5249C18.3492 23.8845 19.2918 22.9596 19.9839 21.75C20.6998 20.5166 21.0578 19.0462 21.0578 17.3385C21.0578 15.8443 20.7237 14.5517 20.0555 13.4606C19.3873 12.3459 18.4327 11.4802 17.1918 10.8636C15.9747 10.2469 14.5428 9.93858 12.8962 9.93858H9.13754C8.75572 9.93858 8.40968 9.85556 8.09945 9.68954C7.81308 9.4998 7.58637 9.26262 7.41931 8.97801C7.25226 8.66968 7.16874 8.33764 7.16874 7.98187C7.16874 7.62611 7.25226 7.30592 7.41931 7.02131L7.89054 7.29788C7.77653 7.49211 7.71513 7.7155 7.71513 7.98187C7.71513 8.24489 7.77515 8.48466 7.89529 8.70948C8.01393 8.90896 8.17308 9.07852 8.37966 9.21955C8.59858 9.33202 8.84775 9.39219 9.13754 9.39219H12.8962C14.6102 9.39219 16.1294 9.71319 17.4368 10.3752C18.7631 11.0347 19.7977 11.9688 20.5228 13.1775C21.251 14.3674 21.6042 15.7617 21.6042 17.3385C21.6042 19.1228 21.2297 20.6914 20.4573 22.0228C19.716 23.3178 18.7 24.3164 17.4143 25.0064L17.4108 25.0082C16.1565 25.6697 14.7673 25.9963 13.2541 25.9963H0.966505ZM26.1547 25.0042C24.907 24.3209 23.9068 23.3921 23.1637 22.2205L23.1563 22.2089C22.4333 21.0027 22.0764 19.6472 22.0764 18.1567C22.0764 17.0046 22.3348 15.9125 22.8506 14.8872C23.269 14.0554 23.824 13.3251 24.5124 12.698C23.9118 12.1116 23.4079 11.4443 23.0019 10.6977L22.9977 10.69L22.9938 10.6822C22.5045 9.70971 22.2553 8.70105 22.2553 7.66168C22.2553 6.19334 22.6133 4.86955 23.3409 3.70736C24.0611 2.55699 25.0395 1.65031 26.2656 0.990274C27.4943 0.328783 28.8368 0 30.2832 0H41.7117V6.60714H31.6435C31.289 6.60714 30.9768 6.67462 30.6988 6.80235C30.4549 6.9248 30.2558 7.09578 30.0959 7.3212C29.9719 7.52694 29.8989 7.78736 29.8989 8.12418C29.8989 8.42722 29.9671 8.67468 30.0907 8.88285C30.2509 9.08943 30.4557 9.26784 30.7123 9.41657C30.9869 9.54032 31.2948 9.60564 31.6435 9.60564H40.4588V16.1772H31.715C31.34 16.1772 31.024 16.255 30.7539 16.3982L30.741 16.405L30.7279 16.4111C30.468 16.5316 30.2634 16.7077 30.1055 16.9472C29.972 17.1846 29.8989 17.4643 29.8989 17.801C29.8989 18.1338 29.9703 18.411 30.101 18.6466C30.2583 18.866 30.468 19.05 30.7409 19.1968C31.014 19.321 31.3353 19.3892 31.715 19.3892H41.7117V25.9963H30.2832C28.7923 25.9963 27.4153 25.669 26.1623 25.0082L26.1547 25.0042ZM30.498 19.6865C30.14 19.4968 29.8536 19.2477 29.6389 18.9394C29.4479 18.6074 29.3525 18.2279 29.3525 17.801C29.3525 17.3741 29.4479 16.9946 29.6389 16.6625C29.8536 16.3305 30.14 16.0814 30.498 15.9154C30.8559 15.7257 31.2616 15.6308 31.715 15.6308H39.9124V10.152H31.6435C31.2139 10.152 30.8201 10.069 30.4622 9.903C30.1281 9.71326 29.8536 9.47608 29.6389 9.19147C29.4479 8.88314 29.3525 8.52738 29.3525 8.12418C29.3525 7.69726 29.4479 7.32964 29.6389 7.02131C29.8536 6.71298 30.1281 6.4758 30.4622 6.30978C30.8201 6.14376 31.2139 6.06074 31.6435 6.06074H41.1653V0.546392H30.2832C28.9229 0.546392 27.67 0.854722 26.5246 1.47138C25.3791 2.08804 24.4722 2.93002 23.804 3.99731C23.1358 5.0646 22.8017 6.28606 22.8017 7.66168C22.8017 8.61039 23.0284 9.53538 23.4819 10.4366C23.8701 11.1504 24.353 11.7858 24.9307 12.3426C25.0632 12.4704 25.2008 12.594 25.3433 12.7135C25.1956 12.8277 25.0536 12.946 24.9172 13.0686C24.2601 13.6591 23.7339 14.3471 23.3387 15.1327C22.8614 16.0814 22.6227 17.0894 22.6227 18.1567C22.6227 19.5561 22.9568 20.8131 23.625 21.9278C24.3171 23.0189 25.2478 23.8845 26.4172 24.5249C27.5865 25.1416 28.8752 25.4499 30.2832 25.4499H41.1653V19.9356H31.715C31.2616 19.9356 30.8559 19.8525 30.498 19.6865ZM42.6554 19.0945V13.5546H53.8786V19.0945H42.6554ZM55.6974 23.1267C55.1934 22.2567 54.9437 21.2958 54.9437 20.2558C54.9437 19.3335 55.1697 18.4519 55.6151 17.6176C56.0599 16.7607 56.6762 16.0446 57.4592 15.4739L57.4682 15.4673L64.8013 10.3481C65.2069 10.0502 65.4795 9.75041 65.6461 9.45599L65.6523 9.44496L65.6591 9.43424C65.8426 9.14237 65.9332 8.82823 65.9332 8.47994C65.9332 8.08787 65.8451 7.81344 65.7091 7.61823L65.7037 7.61054L65.6986 7.60267C65.5455 7.36587 65.3333 7.1854 65.0446 7.05989L65.0253 7.05147L65.0066 7.04158C64.744 6.90239 64.4066 6.82059 63.9738 6.82059H55.9818V0H64.5824C66.2866 0 67.8138 0.374233 69.1476 1.13847C70.4885 1.89315 71.5481 2.90546 72.3146 4.17377C73.1101 5.45021 73.5051 6.8785 73.5051 8.44437C73.5051 9.99322 73.1778 11.3893 72.5085 12.6179C71.857 13.834 70.8036 14.8811 69.3871 15.771L69.3832 15.7734L64.1514 19.1757H73.9347V25.9963H61.0385C59.8599 25.9963 58.7978 25.7409 57.8692 25.2135C56.9572 24.6956 56.2316 24.003 55.7037 23.1373L55.6974 23.1267ZM69.0927 15.3106C70.453 14.4568 71.4314 13.4725 72.028 12.3578C72.6485 11.2193 72.9587 9.91486 72.9587 8.44437C72.9587 6.97387 72.5888 5.64568 71.849 4.4598C71.1331 3.27392 70.1428 2.32522 68.8779 1.61369C67.637 0.902157 66.2051 0.546392 64.5824 0.546392H56.5282V6.2742H63.9738C64.475 6.2742 64.9045 6.36907 65.2625 6.55881C65.6443 6.72484 65.9426 6.97387 66.1574 7.30592C66.3722 7.61425 66.4796 8.00559 66.4796 8.47994C66.4796 8.93058 66.3603 9.34563 66.1216 9.72512C65.9068 10.1046 65.5727 10.4604 65.1193 10.7924L57.781 15.9154C57.0651 16.4372 56.5043 17.0894 56.0986 17.8721C55.6929 18.6311 55.4901 19.4256 55.4901 20.2558C55.4901 21.2045 55.7168 22.0701 56.1702 22.8528C56.6475 23.6355 57.3037 24.264 58.139 24.7384C58.9742 25.2127 59.9408 25.4499 61.0385 25.4499H73.3883V19.7221H63.5085C63.3653 19.7221 63.246 19.6984 63.1505 19.6509C63.0789 19.6035 63.0431 19.5205 63.0431 19.4019C63.0431 19.3308 63.067 19.2715 63.1147 19.224C63.1624 19.1529 63.2221 19.1054 63.2937 19.0817L69.0927 15.3106ZM74.6237 25.9963L84.991 6.94576C85.0064 6.89797 85.0188 6.85638 85.0285 6.82059H74.2807V0H86.9979C88.11 0 89.133 0.257588 90.0548 0.779897C90.9663 1.27275 91.7018 1.95073 92.2527 2.81004C92.8156 3.66383 93.0928 4.63462 93.0928 5.70498C93.0928 6.25216 93.0146 6.79705 92.8601 7.33831C92.734 7.86175 92.5695 8.35264 92.3651 8.80972L92.3572 8.82736L83.1729 25.9963H74.6237ZM92.3316 7.19919C92.4748 6.70112 92.5464 6.20305 92.5464 5.70498C92.5464 4.73256 92.2958 3.86686 91.7947 3.1079C91.2935 2.32522 90.6253 1.70856 89.7901 1.25792C88.9548 0.783569 88.0241 0.546392 86.9979 0.546392H74.8271V6.2742H85.0649C85.2559 6.2742 85.3871 6.30978 85.4587 6.38093C85.5542 6.45208 85.6019 6.55881 85.6019 6.70112C85.6019 6.79599 85.5661 6.95016 85.4945 7.16361L75.5431 25.4499H82.8456L91.8663 8.58667C92.0572 8.15975 92.2123 7.69726 92.3316 7.19919ZM43.2018 18.5481H53.3322V14.101H43.2018V18.5481Z"/>
</svg>
